<svg width="167" height="43" viewBox="0 0 167 43" fill="none" xmlns="http://www.w3.org/2000/svg">
<path d="M26.9202 0C25.2954 0 24.2179 1.28273 24.1837 3.24958V11.9208C24.1837 14.0416 22.7642 15.7006 20.8828 15.7006C19.6001 15.7006 18.3858 14.8626 17.8898 13.6824C17.6161 12.9299 17.5306 12.3997 17.5306 10.6552V3.26668C17.5306 1.33404 16.436 0.0171067 14.8454 0.0171067H14.777C13.1865 0.0171067 12.1261 1.29983 12.0919 3.26668V11.9379C12.0919 14.0587 10.6723 15.7177 8.79097 15.7177C7.50824 15.7177 6.29392 14.8797 5.79793 13.6996C5.52428 12.947 5.43877 12.4168 5.43877 10.6723V3.28379C5.43877 1.35115 4.32707 0.0342069 2.70228 0.0342069C1.07749 0.0342069 0.0513092 1.31694 0 3.28379V11.2025C0 13.5285 0.410475 15.5467 1.19721 16.932C2.83911 19.7882 5.79793 21.5841 8.82517 21.5841C11.0486 21.5841 13.2378 20.6263 14.8454 18.9331C16.5044 20.6092 18.7107 21.5841 20.917 21.5841C23.5338 21.5841 26.065 20.2842 27.6898 18.0608C29.041 16.2137 29.6225 14.2297 29.6225 11.3735V3.28379C29.6225 1.35115 28.5108 0.0342069 26.9202 0.0342069V0Z" fill="#C6D3E4"/>
<path d="M55.9853 13.8364C57.1996 18.4029 61.0649 21.6867 65.6657 21.6867C71.3781 21.6867 75.8762 16.8636 75.8762 10.6552C75.8762 4.84017 71.2584 0 65.6999 0C61.0478 0 57.1141 3.42061 55.934 7.97003H52.5476C51.3846 3.45482 47.3996 0.0513071 42.7476 0.0513071C37.1891 0.0513071 32.6226 4.92568 32.6226 10.8262C32.6226 16.7268 37.1036 21.738 42.7134 21.738C47.4167 21.738 51.2991 18.4371 52.5305 13.8193H55.9853V13.8364ZM65.7341 5.95186C68.2653 5.95186 70.3519 8.15816 70.3519 10.7407C70.3519 13.6311 68.3508 15.8374 65.6999 15.8374C63.0489 15.8374 61.1333 13.6311 61.1333 10.8604C61.1333 8.08975 63.2199 5.93476 65.7512 5.93476L65.7341 5.95186ZM42.7305 15.923C40.1992 15.923 38.1468 13.7167 38.1468 10.946C38.1468 8.17527 40.2334 6.00317 42.7647 6.00317C45.2959 6.00317 47.3825 8.20947 47.3825 10.8091C47.3825 13.6996 45.3814 15.9058 42.7305 15.9058V15.923Z" fill="#C6D3E4"/>
<path d="M89.0865 0C83.3741 0 78.876 4.84017 78.876 11.0315V18.2148C78.876 20.1987 80.0048 21.5499 81.6809 21.5499C83.357 21.5499 84.4003 20.25 84.4516 18.2148V10.8604C84.4858 8.00424 86.4526 5.83214 89.0865 5.83214C91.7204 5.83214 93.6017 7.98713 93.6359 10.7236V18.2148C93.6359 20.1987 94.7476 21.5499 96.4237 21.5499C98.0998 21.5499 99.1431 20.25 99.1944 18.2148V10.8947C99.1944 4.82307 94.6963 0 89.0865 0Z" fill="#C6D3E4"/>
<path d="M115.022 22.901V19.8909C119.263 18.6936 122.325 14.8284 122.325 10.2105C122.325 4.49811 117.827 0 112.08 0C106.676 0 102.195 4.61783 102.195 10.1763C102.195 14.8113 105.359 18.7792 109.6 19.9422V22.8668C105.41 24.0469 102.263 28.0319 102.263 32.684C102.263 38.2424 106.795 42.809 112.268 42.809C117.741 42.809 122.393 38.3109 122.393 32.7182C122.393 27.9977 119.332 24.1324 115.039 22.901H115.022ZM107.702 10.1763C107.702 7.64507 109.737 5.5585 112.149 5.5585C114.851 5.5585 116.886 7.55956 116.886 10.2105C116.886 12.8615 114.834 14.7771 112.268 14.7771C109.703 14.7771 107.702 12.6905 107.702 10.1763ZM112.337 37.2847C109.805 37.2847 107.753 35.2152 107.753 32.6669C107.753 30.1185 109.805 28.049 112.217 28.049C114.919 28.049 116.955 30.0501 116.955 32.7011C116.955 35.352 114.902 37.2676 112.337 37.2676V37.2847Z" fill="#C6D3E4"/>
<path d="M131.807 0.0171002C130.182 0.0171002 129.122 1.29983 129.088 3.26668V18.1635C129.088 20.3697 128.66 21.738 127.771 22.3366L126.71 23.0891C125.821 23.7048 125.393 24.4916 125.393 25.5007C125.393 27.211 126.71 28.4424 128.592 28.4424C131.037 28.4424 133.517 26.1677 134.236 23.3115C134.509 22.3024 134.509 21.9432 134.509 19.4804V3.24958C134.509 1.31694 133.449 0 131.807 0V0.0171002Z" fill="#C6D3E4"/>
<path d="M140.212 0C138.621 0 137.561 1.28273 137.509 3.24958V18.2832C137.509 20.2329 138.621 21.5328 140.246 21.5328C141.871 21.5328 142.897 20.2671 142.948 18.2832V3.24958C142.948 1.31694 141.836 0 140.212 0Z" fill="#C6D3E4"/>
<path d="M156.159 0C150.429 0 145.948 4.84017 145.948 11.0315V18.2148C145.948 20.1987 147.094 21.5499 148.753 21.5499C150.412 21.5499 151.472 20.25 151.506 18.2148V10.8604C151.541 8.00424 153.508 5.83214 156.141 5.83214C158.775 5.83214 160.657 7.98713 160.691 10.7236V18.2148C160.691 20.1987 161.803 21.5499 163.462 21.5499C165.121 21.5499 166.181 20.25 166.215 18.2148V10.8947C166.215 4.82307 161.717 0 156.124 0H156.159Z" fill="#C6D3E4"/>
</svg>
